<svg width="138" height="34" viewBox="0 0 138 34" fill="none" xmlns="http://www.w3.org/2000/svg">
<path d="M38.6616 15.5866C38.6616 12.7433 37.6739 10.9545 35.3789 10.9545C34.0737 10.9545 32.8889 11.7532 32.034 12.6185V18.9125C33.1483 19.9671 34.0737 20.4767 35.4432 20.4767C37.5784 20.4767 38.6616 18.6879 38.6616 15.5908V15.5866ZM26.9004 30.8558V7.0566H31.6501L32.0319 9.6441C33.1462 8.11115 34.7294 6.70508 37.2589 6.70508C41.1142 6.70508 43.791 9.67738 43.791 15.5533C43.791 21.4293 41.081 24.3371 37.1945 24.3371C34.8996 24.3371 33.306 23.5051 32.0319 22.0699V30.0883L26.9004 30.8558Z" fill="#004481"/>
<path d="M57.3026 13.9246C57.0473 11.5284 55.9642 10.3886 54.051 10.3886C52.4574 10.3886 51.0879 11.4432 50.704 13.9246H57.3026ZM45.5435 15.5886C45.5435 8.97629 50.5774 6.70703 54.0842 6.70703C57.591 6.70703 61.8904 8.46462 61.8904 16.1938V16.9614H50.6418C50.897 19.7714 52.4574 20.8592 54.5843 20.8592C56.4542 20.8321 58.2565 20.1542 59.6826 18.9415L61.5958 21.8909C59.6203 23.584 57.1656 24.4472 54.2025 24.4472C49.7723 24.4472 45.5352 22.178 45.5352 15.599" fill="#004481"/>
<path d="M64.5645 24.0833V7.0566H69.3121L69.696 9.73977C70.7148 8.39819 72.601 6.70508 75.5599 6.70508C78.4276 6.70508 80.4985 8.14235 80.4985 11.6575V24.0833H75.4002V13.2861C75.4002 11.7532 74.8254 10.9545 73.3915 10.9545C72.022 10.9545 70.8434 11.6575 69.696 12.6476V24.0875L64.5645 24.0833Z" fill="#004481"/>
<path d="M95.6639 15.5865C95.6639 12.7431 94.6762 10.9544 92.3833 10.9544C91.076 10.9544 89.8933 11.7531 89.0363 12.6183V18.9124C90.1526 19.9669 91.076 20.4765 92.4455 20.4765C94.5807 20.4765 95.6639 18.6877 95.6639 15.5906V15.5865ZM83.8965 30.8556V7.05647H88.6462L89.028 9.64397C90.1526 8.11102 91.7463 6.70703 94.2715 6.70703C98.1269 6.70703 100.804 9.67933 100.804 15.5553C100.804 21.4312 98.0937 24.3391 94.2072 24.3391C91.9123 24.3391 90.3186 23.5071 89.0446 22.0719V30.0902L83.8965 30.8556Z" fill="#14C8BE"/>
<path d="M113.125 19.004V15.8404C109.079 16.2564 107.358 17.2797 107.358 18.8439C107.358 19.9296 108.122 20.4725 109.238 20.4725C111.023 20.4725 112.266 19.8672 113.125 19.004ZM102.364 19.7383C102.364 15.8092 105.684 13.6377 113.135 13.0303V12.6143C113.135 11.3663 112.436 10.5697 110.587 10.5697C108.676 10.5697 107.06 11.4641 105.649 12.5831L102.876 9.80425C104.563 8.23803 107.114 6.70508 111.32 6.70508C116.165 6.70508 118.14 9.00554 118.14 13.3818V24.0833H113.509L113.125 21.5874C111.564 23.3429 109.716 24.335 107.199 24.335C104.586 24.335 102.354 22.6419 102.354 19.7341" fill="#14C8BE"/>
<path d="M121.028 30.3442L120.646 26.0636C121.632 26.3389 122.65 26.4788 123.674 26.4796C124.788 26.4796 125.427 26.0636 125.84 25.009L126.16 24.177L119.818 7.43939L124.852 6.67188L128.677 18.1118H128.741L132.501 7.05875H137.481L130.343 25.8743C129.195 28.8133 127.633 30.6021 124.224 30.6021C123.157 30.6249 122.09 30.5392 121.041 30.3463" fill="#14C8BE"/>
<path d="M12.2426 0C9.82123 0 7.45425 0.719734 5.44097 2.06819C3.42769 3.41664 1.85853 5.33325 0.931916 7.57565C0.00530421 9.81805 -0.237139 12.2855 0.235243 14.666C0.707626 17.0466 1.87362 19.2332 3.58577 20.9495C5.29793 22.6657 7.47935 23.8345 9.85417 24.308C12.229 24.7815 14.6906 24.5385 16.9276 23.6097C19.1646 22.6808 21.0767 21.1079 22.4219 19.0898C23.7671 17.0717 24.4852 14.6991 24.4852 12.2719C24.4852 9.01719 23.1953 5.89579 20.8994 3.59436C18.6035 1.29293 15.4895 0 12.2426 0ZM12.0185 19.5519C10.0843 19.5193 8.24033 18.7263 6.884 17.3437C5.52766 15.9611 4.76758 14.0997 4.76758 12.1606C4.76758 10.2216 5.52766 8.36012 6.884 6.97753C8.24033 5.59495 10.0843 4.80193 12.0185 4.7694H19.3869V12.1617C19.3877 13.1324 19.1977 14.0939 18.8279 14.991C18.458 15.8882 17.9155 16.7036 17.2313 17.3906C16.5471 18.0776 15.7346 18.6228 14.8401 18.9951C13.9457 19.3673 12.9869 19.5593 12.0185 19.5602V19.5519Z" fill="#004481"/>
<path d="M19.3937 12.1696C19.3937 13.6317 18.9612 15.0609 18.1509 16.2765C17.3406 17.4922 16.1888 18.4397 14.8413 18.9992C13.4937 19.5587 12.0109 19.7051 10.5804 19.4198C9.14989 19.1346 7.83586 18.4306 6.8045 17.3967C5.77315 16.3629 5.07079 15.0457 4.78624 13.6118C4.50168 12.1778 4.64773 10.6915 5.20589 9.34071C5.76406 7.98995 6.70928 6.83544 7.92202 6.02316C9.13477 5.21089 10.5606 4.77734 12.0191 4.77734H19.3875L19.3937 12.1696Z" fill="#14C8BE"/>
<path d="M113.818 27.2828L111.938 30.8708C111.923 30.897 111.898 30.916 111.869 30.9238C111.84 30.9316 111.809 30.9275 111.783 30.9124C111.766 30.9018 111.752 30.8876 111.741 30.8708L109.859 27.2828C109.85 27.2655 109.836 27.2509 109.819 27.2407C109.802 27.2304 109.783 27.2249 109.764 27.2246H108.855C108.844 27.2249 108.833 27.2273 108.823 27.2317C108.813 27.2362 108.804 27.2425 108.797 27.2504C108.789 27.2584 108.783 27.2677 108.779 27.2779C108.775 27.2881 108.774 27.299 108.774 27.3099C108.771 27.3215 108.771 27.3337 108.774 27.3452L111.735 32.9009C111.744 32.9182 111.758 32.9327 111.775 32.9428C111.792 32.9529 111.812 32.9582 111.831 32.9582C111.851 32.9582 111.87 32.9529 111.887 32.9428C111.904 32.9327 111.918 32.9182 111.928 32.9009L114.889 27.3452C114.894 27.3354 114.897 27.3247 114.898 27.3137C114.898 27.3027 114.897 27.2917 114.894 27.2813C114.89 27.2708 114.885 27.2612 114.877 27.2529C114.87 27.2446 114.861 27.2378 114.852 27.2329C114.84 27.2308 114.828 27.2308 114.816 27.2329H113.905C113.886 27.2332 113.866 27.2387 113.85 27.249C113.833 27.2592 113.819 27.2738 113.81 27.2912" fill="#004481"/>
<path d="M114.886 32.0699L116.765 28.484C116.772 28.4702 116.78 28.4577 116.791 28.4473C116.802 28.4369 116.815 28.4289 116.829 28.4236C116.843 28.4184 116.858 28.4161 116.874 28.4168C116.889 28.4175 116.903 28.4213 116.917 28.4279C116.942 28.4386 116.962 28.4587 116.973 28.484L118.855 32.0699C118.864 32.0873 118.878 32.1018 118.895 32.1121C118.912 32.1223 118.931 32.1279 118.95 32.1281H119.859C119.87 32.1284 119.881 32.1266 119.89 32.1228C119.9 32.1189 119.909 32.1132 119.917 32.1059C119.925 32.0985 119.931 32.0897 119.935 32.08C119.94 32.0703 119.942 32.0598 119.942 32.0491C119.942 32.0346 119.938 32.0204 119.932 32.0075L116.971 26.4519C116.961 26.4345 116.947 26.42 116.93 26.4099C116.914 26.3999 116.894 26.3945 116.874 26.3945C116.855 26.3945 116.835 26.3999 116.818 26.4099C116.801 26.42 116.787 26.4345 116.778 26.4519L113.817 32.0075C113.806 32.0263 113.804 32.0484 113.81 32.0691C113.816 32.0897 113.829 32.1072 113.848 32.1177C113.861 32.1243 113.875 32.1279 113.889 32.1281H114.8C114.82 32.1279 114.839 32.1223 114.856 32.1121C114.873 32.1018 114.887 32.0873 114.896 32.0699" fill="#004481"/>
<path d="M100.825 32.1269H99.1322C99.118 32.1272 99.104 32.1246 99.0908 32.1195C99.0776 32.1143 99.0655 32.1065 99.0553 32.0967C99.0451 32.0868 99.0369 32.0751 99.0313 32.062C99.0256 32.049 99.0225 32.035 99.0222 32.0208V30.4983C99.0222 30.469 99.0338 30.441 99.0545 30.4203C99.0751 30.3996 99.103 30.388 99.1322 30.388H100.825C101.633 30.388 101.994 30.6168 101.994 31.2595C101.994 31.9022 101.641 32.129 100.825 32.129V32.1269ZM99.1322 28.0563H100.803C101.425 28.0563 101.732 28.3205 101.732 28.8072C101.732 29.2939 101.421 29.5581 100.803 29.5581H99.1322C99.1036 29.5581 99.0762 29.5467 99.0559 29.5264C99.0357 29.5061 99.0243 29.4786 99.0243 29.4499V28.1666C99.0243 28.1379 99.0357 28.1104 99.0559 28.0901C99.0762 28.0698 99.1036 28.0584 99.1322 28.0584V28.0563ZM102.037 29.8743C102.24 29.7628 102.408 29.5961 102.521 29.3933C102.633 29.1906 102.687 28.96 102.674 28.7282C102.674 27.8359 101.981 27.2285 101 27.2285H98.186C98.1574 27.2285 98.13 27.2399 98.1097 27.2602C98.0895 27.2805 98.0781 27.308 98.0781 27.3367V32.8528C98.0781 32.8815 98.0895 32.909 98.1097 32.9293C98.13 32.9496 98.1574 32.961 98.186 32.961H100.884C102.232 32.961 102.944 32.3786 102.944 31.2408C102.963 30.9458 102.885 30.6526 102.723 30.4057C102.561 30.1588 102.323 29.9715 102.046 29.8722" fill="#004481"/>
<path d="M106.605 32.1271H104.91C104.881 32.1271 104.854 32.1157 104.833 32.0955C104.813 32.0752 104.802 32.0477 104.802 32.019V30.4964C104.801 30.4822 104.804 30.4681 104.809 30.4549C104.814 30.4416 104.822 30.4296 104.832 30.4193C104.842 30.4091 104.853 30.4009 104.866 30.3952C104.879 30.3895 104.893 30.3865 104.908 30.3862H106.605C107.412 30.3862 107.773 30.615 107.773 31.2577C107.773 31.9004 107.42 32.1271 106.605 32.1271ZM104.912 28.0545H106.582C107.205 28.0545 107.512 28.3187 107.512 28.8054C107.512 29.2921 107.198 29.5563 106.582 29.5563H104.912C104.882 29.5563 104.855 29.5447 104.834 29.524C104.813 29.5033 104.802 29.4753 104.802 29.446V28.1627C104.802 28.134 104.813 28.1065 104.833 28.0862C104.854 28.0659 104.881 28.0545 104.91 28.0545H104.912ZM107.815 29.8704C108.018 29.7589 108.185 29.5922 108.298 29.3894C108.411 29.1867 108.464 28.9561 108.452 28.7243C108.452 27.832 107.757 27.2246 106.775 27.2246H103.965C103.936 27.2246 103.908 27.2362 103.888 27.2569C103.867 27.2776 103.855 27.3056 103.855 27.3348V32.851C103.855 32.8797 103.867 32.9072 103.887 32.9274C103.907 32.9477 103.935 32.9591 103.963 32.9591H106.661C108.01 32.9591 108.719 32.3767 108.719 31.239C108.739 30.9442 108.662 30.651 108.5 30.4041C108.338 30.1571 108.101 29.9697 107.823 29.8704" fill="#004481"/>
<path d="M92.7292 31.6097C92.7292 30.8671 92.3598 30.5073 91.9096 30.5073C91.5776 30.5073 91.341 30.6779 91.0796 30.9483V32.2732C91.1822 32.4018 91.311 32.507 91.4573 32.582C91.6036 32.6569 91.7641 32.6998 91.9282 32.7079C92.3785 32.7079 92.7375 32.3751 92.7375 31.6097H92.7292ZM91.0775 32.5914L91.0671 32.9596H90.7227V29.1907L91.0775 29.1387V30.6508C91.1849 30.514 91.3216 30.4029 91.4774 30.3259C91.6332 30.2489 91.8043 30.2078 91.978 30.2057C92.6005 30.2057 93.0882 30.6612 93.0882 31.6055C93.0882 32.5498 92.5922 33.0054 91.9677 33.0054C91.7985 33.0023 91.6319 32.9636 91.4786 32.892C91.3252 32.8203 91.1886 32.7172 91.0775 32.5894" fill="#004481"/>
<path d="M93.3608 33.9555L93.3359 33.6476C93.4636 33.679 93.5946 33.6951 93.726 33.6955C93.8527 33.7028 93.978 33.665 94.0797 33.589C94.1814 33.5129 94.2531 33.4033 94.2821 33.2795L94.3942 32.982L93.3567 30.3009L93.7094 30.2344L94.5602 32.5473L95.3902 30.2697H95.7596L94.5976 33.2795C94.4129 33.762 94.2137 33.9991 93.697 33.9991C93.5762 34.0033 93.4554 33.9907 93.338 33.9617" fill="#004481"/>
</svg>
